<svg width="347" height="65" viewBox="0 0 347 65" fill="none" xmlns="http://www.w3.org/2000/svg">
<path d="M22.368 40H4.08V6.784H7.776V36.688H22.368V40ZM27.0488 40V6.784H47.2568V10.048H30.7448V21.52H44.3768V24.736H30.7448V36.736H47.2568V40H27.0488ZM62.6074 9.52C57.8074 9.52 55.4074 11.328 55.4074 14.944C55.4074 16.96 55.9514 18.352 57.0394 19.12C58.1594 19.856 60.3994 20.608 63.7594 21.376C67.1514 22.112 69.5514 23.088 70.9594 24.304C72.3674 25.488 73.0714 27.456 73.0714 30.208C73.0714 37.024 69.5354 40.432 62.4634 40.432C60.1274 40.432 57.1994 40.16 53.6794 39.616L51.9514 39.376L52.3354 36.304C56.6874 36.88 59.9994 37.168 62.2714 37.168C67.0074 37.168 69.3754 34.944 69.3754 30.496C69.3754 28.704 68.8474 27.424 67.7914 26.656C66.7674 25.856 64.8314 25.184 61.9834 24.64C58.2394 23.84 55.5834 22.816 54.0154 21.568C52.4474 20.288 51.6634 18.16 51.6634 15.184C51.6634 9.232 55.2314 6.256 62.3674 6.256C64.7034 6.256 67.5034 6.496 70.7674 6.976L72.3994 7.216L72.0634 10.336C67.6154 9.792 64.4634 9.52 62.6074 9.52ZM102.146 28.816H93.6979V40H90.0019V6.784H102.146C105.762 6.784 108.434 7.664 110.162 9.424C111.89 11.184 112.754 13.872 112.754 17.488C112.754 25.04 109.218 28.816 102.146 28.816ZM93.6979 25.552H102.098C106.674 25.552 108.962 22.864 108.962 17.488C108.962 14.928 108.418 13.056 107.33 11.872C106.242 10.656 104.498 10.048 102.098 10.048H93.6979V25.552ZM122.151 27.28V40H118.455V6.784H130.743C134.263 6.784 136.903 7.6 138.663 9.232C140.455 10.864 141.351 13.408 141.351 16.864C141.351 21.984 139.319 25.2 135.255 26.512L141.639 40H137.559L131.559 27.28H122.151ZM130.791 24.016C135.303 24.016 137.559 21.696 137.559 17.056C137.559 12.384 135.287 10.048 130.743 10.048H122.151V24.016H130.791ZM150.481 23.536C150.481 28.4 151.121 31.904 152.401 34.048C153.681 36.16 156.145 37.216 159.793 37.216C163.473 37.216 165.937 36.176 167.185 34.096C168.465 32.016 169.105 28.528 169.105 23.632C169.105 18.736 168.449 15.168 167.137 12.928C165.825 10.688 163.361 9.568 159.745 9.568C156.161 9.568 153.713 10.688 152.401 12.928C151.121 15.136 150.481 18.672 150.481 23.536ZM172.945 23.632C172.945 29.552 172.001 33.84 170.113 36.496C168.225 39.152 164.785 40.48 159.793 40.48C154.833 40.48 151.409 39.12 149.521 36.4C147.633 33.68 146.689 29.408 146.689 23.584C146.689 17.728 147.649 13.392 149.569 10.576C151.489 7.728 154.897 6.304 159.793 6.304C164.689 6.304 168.097 7.712 170.017 10.528C171.969 13.344 172.945 17.712 172.945 23.632ZM179.721 40V6.784H186.393L195.801 34.864L205.209 6.784H211.881V40H208.185V10.72H207.513L197.865 38.8H193.737L184.089 10.72H183.417V40H179.721ZM220.033 40V6.784H240.241V10.048H223.729V21.52H237.361V24.736H223.729V36.736H240.241V40H220.033ZM255.592 9.52C250.792 9.52 248.392 11.328 248.392 14.944C248.392 16.96 248.936 18.352 250.024 19.12C251.144 19.856 253.384 20.608 256.744 21.376C260.136 22.112 262.536 23.088 263.944 24.304C265.352 25.488 266.056 27.456 266.056 30.208C266.056 37.024 262.52 40.432 255.448 40.432C253.112 40.432 250.184 40.16 246.664 39.616L244.936 39.376L245.32 36.304C249.672 36.88 252.984 37.168 255.256 37.168C259.992 37.168 262.36 34.944 262.36 30.496C262.36 28.704 261.832 27.424 260.776 26.656C259.752 25.856 257.816 25.184 254.968 24.64C251.224 23.84 248.568 22.816 247 21.568C245.432 20.288 244.648 18.16 244.648 15.184C244.648 9.232 248.216 6.256 255.352 6.256C257.688 6.256 260.488 6.496 263.752 6.976L265.384 7.216L265.048 10.336C260.6 9.792 257.448 9.52 255.592 9.52ZM281.607 9.52C276.807 9.52 274.407 11.328 274.407 14.944C274.407 16.96 274.951 18.352 276.039 19.12C277.159 19.856 279.399 20.608 282.759 21.376C286.151 22.112 288.551 23.088 289.959 24.304C291.367 25.488 292.071 27.456 292.071 30.208C292.071 37.024 288.535 40.432 281.463 40.432C279.127 40.432 276.199 40.16 272.679 39.616L270.951 39.376L271.335 36.304C275.687 36.88 278.999 37.168 281.271 37.168C286.007 37.168 288.375 34.944 288.375 30.496C288.375 28.704 287.847 27.424 286.791 26.656C285.767 25.856 283.831 25.184 280.983 24.64C277.239 23.84 274.583 22.816 273.015 21.568C271.447 20.288 270.663 18.16 270.663 15.184C270.663 9.232 274.231 6.256 281.367 6.256C283.703 6.256 286.503 6.496 289.767 6.976L291.399 7.216L291.063 10.336C286.615 9.792 283.463 9.52 281.607 9.52ZM298.455 40V6.784H318.663V10.048H302.151V21.52H315.783V24.736H302.151V36.736H318.663V40H298.455ZM334.014 9.52C329.214 9.52 326.814 11.328 326.814 14.944C326.814 16.96 327.358 18.352 328.446 19.12C329.566 19.856 331.806 20.608 335.166 21.376C338.558 22.112 340.958 23.088 342.366 24.304C343.774 25.488 344.478 27.456 344.478 30.208C344.478 37.024 340.942 40.432 333.87 40.432C331.534 40.432 328.606 40.16 325.086 39.616L323.358 39.376L323.742 36.304C328.094 36.88 331.406 37.168 333.678 37.168C338.414 37.168 340.782 34.944 340.782 30.496C340.782 28.704 340.254 27.424 339.198 26.656C338.174 25.856 336.238 25.184 333.39 24.64C329.646 23.84 326.99 22.816 325.422 21.568C323.854 20.288 323.07 18.16 323.07 15.184C323.07 9.232 326.638 6.256 333.774 6.256C336.11 6.256 338.91 6.496 342.174 6.976L343.806 7.216L343.47 10.336C339.022 9.792 335.87 9.52 334.014 9.52Z" fill="black"/>
<path d="M43.928 59H42.696V54.344L39.16 47.928H40.552L43.304 53.112L46.056 47.928H47.448L43.928 54.344V59ZM49.3166 53.512C49.3166 55.1333 49.53 56.3013 49.9566 57.016C50.3833 57.72 51.2046 58.072 52.4206 58.072C53.6473 58.072 54.4686 57.7253 54.8846 57.032C55.3113 56.3387 55.5246 55.176 55.5246 53.544C55.5246 51.912 55.306 50.7227 54.8686 49.976C54.4313 49.2293 53.61 48.856 52.4046 48.856C51.21 48.856 50.394 49.2293 49.9566 49.976C49.53 50.712 49.3166 51.8907 49.3166 53.512ZM56.8046 53.544C56.8046 55.5173 56.49 56.9467 55.8606 57.832C55.2313 58.7173 54.0846 59.16 52.4206 59.16C50.7673 59.16 49.626 58.7067 48.9966 57.8C48.3673 56.8933 48.0526 55.4693 48.0526 53.528C48.0526 51.576 48.3726 50.1307 49.0126 49.192C49.6526 48.2427 50.7886 47.768 52.4206 47.768C54.0526 47.768 55.1886 48.2373 55.8286 49.176C56.4793 50.1147 56.8046 51.5707 56.8046 53.544ZM60.2151 55.672C60.2151 57.272 61.0791 58.072 62.8071 58.072C63.7031 58.072 64.3751 57.8853 64.8231 57.512C65.2818 57.128 65.5111 56.5147 65.5111 55.672V47.928H66.7271V55.64C66.7271 56.8773 66.3965 57.7733 65.7351 58.328C65.0845 58.8827 64.1191 59.16 62.8391 59.16C61.5591 59.16 60.5938 58.8827 59.9431 58.328C59.3031 57.7733 58.9831 56.8773 58.9831 55.64V47.928H60.2151V55.672ZM70.592 54.76V59H69.36V47.928H73.456C74.6293 47.928 75.5093 48.2 76.096 48.744C76.6933 49.288 76.992 50.136 76.992 51.288C76.992 52.9947 76.3147 54.0667 74.96 54.504L77.088 59H75.728L73.728 54.76H70.592ZM73.472 53.672C74.976 53.672 75.728 52.8987 75.728 51.352C75.728 49.7947 74.9707 49.016 73.456 49.016H70.592V53.672H73.472ZM82.735 47.928H86.751C87.8497 47.928 88.671 48.1573 89.215 48.616C89.7697 49.064 90.047 49.7733 90.047 50.744C90.047 51.4373 89.9243 51.9813 89.679 52.376C89.4443 52.76 89.0923 53.064 88.623 53.288C89.7963 53.6933 90.383 54.5627 90.383 55.896C90.383 57.0053 90.0897 57.8 89.503 58.28C88.9163 58.76 88.0683 59 86.959 59H82.735V47.928ZM86.831 53.912H83.967V57.912H86.911C87.6363 57.912 88.1857 57.7627 88.559 57.464C88.943 57.1547 89.135 56.616 89.135 55.848C89.135 55.4427 89.055 55.1013 88.895 54.824C88.7457 54.5467 88.543 54.3493 88.287 54.232C87.8177 54.0187 87.3323 53.912 86.831 53.912ZM86.703 49.016H83.967V52.84H86.815C87.4977 52.84 87.9937 52.68 88.303 52.36C88.623 52.0293 88.783 51.5387 88.783 50.888C88.783 50.2267 88.6123 49.752 88.271 49.464C87.9403 49.1653 87.4177 49.016 86.703 49.016ZM92.5944 59V47.928H99.3304V49.016H93.8264V52.84H98.3704V53.912H93.8264V57.912H99.3304V59H92.5944ZM104.447 48.84C102.847 48.84 102.047 49.4427 102.047 50.648C102.047 51.32 102.229 51.784 102.591 52.04C102.965 52.2853 103.711 52.536 104.831 52.792C105.962 53.0373 106.762 53.3627 107.231 53.768C107.701 54.1627 107.935 54.8187 107.935 55.736C107.935 58.008 106.757 59.144 104.399 59.144C103.621 59.144 102.645 59.0533 101.471 58.872L100.895 58.792L101.023 57.768C102.474 57.96 103.578 58.056 104.335 58.056C105.914 58.056 106.703 57.3147 106.703 55.832C106.703 55.2347 106.527 54.808 106.175 54.552C105.834 54.2853 105.189 54.0613 104.239 53.88C102.991 53.6133 102.106 53.272 101.583 52.856C101.061 52.4293 100.799 51.72 100.799 50.728C100.799 48.744 101.989 47.752 104.367 47.752C105.146 47.752 106.079 47.832 107.167 47.992L107.711 48.072L107.599 49.112C106.117 48.9307 105.066 48.84 104.447 48.84ZM114.111 55.272H111.295V59H110.063V47.928H114.111C115.316 47.928 116.207 48.2213 116.783 48.808C117.359 49.3947 117.647 50.2907 117.647 51.496C117.647 54.0133 116.468 55.272 114.111 55.272ZM111.295 54.184H114.095C115.62 54.184 116.383 53.288 116.383 51.496C116.383 50.6427 116.202 50.0187 115.839 49.624C115.476 49.2187 114.895 49.016 114.095 49.016H111.295V54.184ZM120.364 53.512C120.364 55.1333 120.577 56.3013 121.004 57.016C121.43 57.72 122.252 58.072 123.468 58.072C124.694 58.072 125.516 57.7253 125.932 57.032C126.358 56.3387 126.572 55.176 126.572 53.544C126.572 51.912 126.353 50.7227 125.916 49.976C125.478 49.2293 124.657 48.856 123.452 48.856C122.257 48.856 121.441 49.2293 121.004 49.976C120.577 50.712 120.364 51.8907 120.364 53.512ZM127.852 53.544C127.852 55.5173 127.537 56.9467 126.908 57.832C126.278 58.7173 125.132 59.16 123.468 59.16C121.814 59.16 120.673 58.7067 120.044 57.8C119.414 56.8933 119.1 55.4693 119.1 53.528C119.1 51.576 119.42 50.1307 120.06 49.192C120.7 48.2427 121.836 47.768 123.468 47.768C125.1 47.768 126.236 48.2373 126.876 49.176C127.526 50.1147 127.852 51.5707 127.852 53.544ZM131.342 59H130.11V47.928H131.342V53.08L133.166 53.016L135.998 47.928H137.406L134.238 53.496L137.582 59H136.126L133.182 54.104L131.342 54.168V59ZM139.219 59V47.928H145.955V49.016H140.451V52.84H144.995V53.912H140.451V57.912H145.955V59H139.219ZM150.699 47.928H151.979L153.867 57.912H154.331L156.587 48.024H158.027L160.283 57.912H160.747L162.635 47.928H163.899L161.659 59H159.403L157.307 49.544L155.211 59H152.955L150.699 47.928ZM165.751 59V47.928H172.487V49.016H166.983V52.84H171.527V53.912H166.983V57.912H172.487V59H165.751ZM178.546 59H174.594V47.928H178.546C180.349 47.928 181.544 48.6427 182.13 50.072C182.472 50.8933 182.642 51.9707 182.642 53.304C182.642 56.088 181.949 57.8427 180.562 58.568C180.008 58.856 179.336 59 178.546 59ZM181.378 53.304C181.378 51.1813 180.904 49.8587 179.954 49.336C179.57 49.1227 179.101 49.016 178.546 49.016H175.826V57.912H178.546C180.434 57.912 181.378 56.376 181.378 53.304ZM188.859 59H184.907V47.928H188.859C190.662 47.928 191.856 48.6427 192.443 50.072C192.784 50.8933 192.955 51.9707 192.955 53.304C192.955 56.088 192.262 57.8427 190.875 58.568C190.32 58.856 189.648 59 188.859 59ZM191.691 53.304C191.691 51.1813 191.216 49.8587 190.267 49.336C189.883 49.1227 189.414 49.016 188.859 49.016H186.139V57.912H188.859C190.747 57.912 191.691 56.376 191.691 53.304ZM195.219 59V47.928H196.451V59H195.219ZM199.157 59V47.928H201.461L205.701 57.912H206.037V47.928H207.253V59H204.997L200.693 49.016H200.389V59H199.157ZM214.353 54.44V53.336H217.409V58.776C216.065 59.032 214.865 59.16 213.809 59.16C212.199 59.16 211.079 58.696 210.449 57.768C209.831 56.84 209.521 55.4107 209.521 53.48C209.521 51.5387 209.831 50.104 210.449 49.176C211.079 48.2373 212.188 47.768 213.777 47.768C214.769 47.768 215.799 47.8747 216.865 48.088L217.409 48.184L217.361 49.208C216.039 48.984 214.892 48.872 213.921 48.872C212.695 48.872 211.868 49.2293 211.441 49.944C211.015 50.648 210.801 51.8267 210.801 53.48C210.801 55.1227 211.015 56.3013 211.441 57.016C211.868 57.72 212.689 58.072 213.905 58.072C214.652 58.072 215.415 57.9973 216.193 57.848V54.44H214.353ZM226.4 48.84C224.8 48.84 224 49.4427 224 50.648C224 51.32 224.182 51.784 224.544 52.04C224.918 52.2853 225.664 52.536 226.784 52.792C227.915 53.0373 228.715 53.3627 229.184 53.768C229.654 54.1627 229.888 54.8187 229.888 55.736C229.888 58.008 228.71 59.144 226.352 59.144C225.574 59.144 224.598 59.0533 223.424 58.872L222.848 58.792L222.976 57.768C224.427 57.96 225.531 58.056 226.288 58.056C227.867 58.056 228.656 57.3147 228.656 55.832C228.656 55.2347 228.48 54.808 228.128 54.552C227.787 54.2853 227.142 54.0613 226.192 53.88C224.944 53.6133 224.059 53.272 223.536 52.856C223.014 52.4293 222.752 51.72 222.752 50.728C222.752 48.744 223.942 47.752 226.32 47.752C227.099 47.752 228.032 47.832 229.12 47.992L229.664 48.072L229.552 49.112C228.07 48.9307 227.019 48.84 226.4 48.84ZM232.016 59V47.928H233.248V59H232.016ZM242.05 59H235.954V47.928H237.186V57.896H242.05V59ZM250.474 59V53.992H244.842V59H243.61V47.928H244.842V52.888H250.474V47.928H251.69V59H250.474ZM255.223 53.512C255.223 55.1333 255.436 56.3013 255.863 57.016C256.29 57.72 257.111 58.072 258.327 58.072C259.554 58.072 260.375 57.7253 260.791 57.032C261.218 56.3387 261.431 55.176 261.431 53.544C261.431 51.912 261.212 50.7227 260.775 49.976C260.338 49.2293 259.516 48.856 258.311 48.856C257.116 48.856 256.3 49.2293 255.863 49.976C255.436 50.712 255.223 51.8907 255.223 53.512ZM262.711 53.544C262.711 55.5173 262.396 56.9467 261.767 57.832C261.138 58.7173 259.991 59.16 258.327 59.16C256.674 59.16 255.532 58.7067 254.903 57.8C254.274 56.8933 253.959 55.4693 253.959 53.528C253.959 51.576 254.279 50.1307 254.919 49.192C255.559 48.2427 256.695 47.768 258.327 47.768C259.959 47.768 261.095 48.2373 261.735 49.176C262.386 50.1147 262.711 51.5707 262.711 53.544ZM266.121 55.672C266.121 57.272 266.985 58.072 268.713 58.072C269.609 58.072 270.281 57.8853 270.729 57.512C271.188 57.128 271.417 56.5147 271.417 55.672V47.928H272.633V55.64C272.633 56.8773 272.303 57.7733 271.641 58.328C270.991 58.8827 270.025 59.16 268.745 59.16C267.465 59.16 266.5 58.8827 265.849 58.328C265.209 57.7733 264.889 56.8773 264.889 55.64V47.928H266.121V55.672ZM275.266 59V47.928H282.002V49.016H276.498V52.84H281.042V53.912H276.498V57.912H282.002V59H275.266ZM282.958 49.032V47.928H290.958V49.032H287.582V59H286.366V49.032H282.958ZM291.38 49.032V47.928H299.38V49.032H296.004V59H294.788V49.032H291.38ZM300.954 59V47.928H307.69V49.016H302.186V52.84H306.73V53.912H302.186V57.912H307.69V59H300.954Z" fill="black"/>
</svg>
