<svg width="22767" height="9359" viewBox="0 0 22767 9359" fill="none" xmlns="http://www.w3.org/2000/svg">
<path d="M9.75977 9349.47C9.75977 8637.35 180.038 7956.29 414.548 7284.78C764.895 6281.58 1276.69 5333.39 1880.21 4460.76C2830.92 3086.11 4027.4 1882.84 5497.5 1066.25C6693.04 402.16 8098.04 -28.4862 9474.75 12.1647C10589.9 45.0926 11581.9 478.677 12373.5 1264.56C13133 2018.7 13627.9 2976.95 14216.8 3857.66C14810.9 4746.24 15472.5 5534.45 16414.6 6066.34C17023 6409.84 17605.3 6520.98 18293.2 6570.28C18866 6611.34 19412.8 6621.6 19965.3 6445.31C20969 6125.06 22026.7 5462.54 22466 4460.76C22683.5 3964.86 22764.8 3383.45 22756.7 2845.69C22748.3 2286.22 22675.5 1676.93 22404.9 1177.63C22244.5 881.628 21887.9 630.419 21770.5 1060.81" stroke="#000000" stroke-width="18" stroke-linecap="round"/>
</svg>
